<?xml version="1.0" encoding="UTF-8"?>
<svg id="Calque_1" data-name="Calque 1" xmlns="http://www.w3.org/2000/svg" version="1.1" viewBox="0 0 800 800">
  <defs>
    <style>
      .cls-1 {
        fill: red;
      }

      .cls-1, .cls-2 {
        stroke-width: 0px;
      }

      .cls-2 {
        fill: #fff;
      }
    </style>
  </defs>
  <path class="cls-1" d="M704.2,247.3c-7.3-27.3-28.8-48.7-56-56-49.4-13.3-247.7-13.3-247.7-13.3,0,0-198.3,0-247.7,13.3-27.3,7.3-48.7,28.8-56,56-13.3,49.4-13.3,152.6-13.3,152.6,0,0,0,103.2,13.3,152.6,7.3,27.3,28.8,48.7,56,56,49.4,13.3,247.7,13.3,247.7,13.3,0,0,198.3,0,247.7-13.3,27.3-7.3,48.7-28.8,56-56,13.3-49.4,13.3-152.6,13.3-152.6,0,0,0-103.2-13.3-152.6Z"/>
  <path class="cls-2" d="M337,495l164.7-95.1-164.7-95.1v190.2Z"/>
</svg>